{
	"asset":{
		"version":"2.0",
		"generator":"Created using the official Cinema 4D glTF Exporter 1.000x284978"
	},
	"scenes":[{
		"nodes":[0]
	}],
	"nodes":[{
		"name":"WhateverThisIs2.obj",
		"children":[1,
		2,
		3,
		4]
	},
	{
		"name":"brain",
		"mesh":0
	},
	{
		"name":"brain1",
		"mesh":1
	},
	{
		"name":"brain_1",
		"mesh":2
	},
	{
		"name":"brain1_1",
		"mesh":3
	}],
	"meshes":[{
		"name":"brain",
		"primitives":[{
			"attributes":{
				"POSITION":1,
				"NORMAL":2,
				"TEXCOORD_0":3
			},
			"indices":0,
			"material":0
		}]
	},
	{
		"name":"brain1",
		"primitives":[{
			"attributes":{
				"POSITION":5,
				"NORMAL":6,
				"TEXCOORD_0":7
			},
			"indices":4,
			"material":0
		}]
	},
	{
		"name":"brain_1",
		"primitives":[{
			"attributes":{
				"POSITION":9,
				"NORMAL":10,
				"TEXCOORD_0":11
			},
			"indices":8,
			"material":1
		}]
	},
	{
		"name":"brain1_1",
		"primitives":[{
			"attributes":{
				"POSITION":13,
				"NORMAL":14,
				"TEXCOORD_0":15
			},
			"indices":12,
			"material":1
		}]
	}],
	"accessors":[{
		"bufferView":0,
		"type":"SCALAR",
		"componentType":5123,
		"min":[0],
		"count":52416,
		"byteOffset":0,
		"max":[17642]
	},
	{
		"bufferView":1,
		"type":"VEC3",
		"componentType":5126,
		"min":[-0.20793600380420686,
		-4.392847061157227,
		-3.969233989715576],
		"count":17643,
		"byteOffset":0,
		"max":[3.3916800022125246,
		3.9214980602264406,
		5.395370960235596]
	},
	{
		"bufferView":1,
		"type":"VEC3",
		"componentType":5126,
		"min":[-1.0,
		-1.0,
		-1.0],
		"count":17643,
		"byteOffset":12,
		"max":[1.0,
		1.0,
		1.0]
	},
	{
		"bufferView":1,
		"type":"VEC2",
		"componentType":5126,
		"min":[0.0,
		0.0],
		"count":17643,
		"byteOffset":24,
		"max":[1.0,
		1.0]
	},
	{
		"bufferView":2,
		"type":"SCALAR",
		"componentType":5123,
		"min":[0],
		"count":52416,
		"byteOffset":0,
		"max":[17642]
	},
	{
		"bufferView":3,
		"type":"VEC3",
		"componentType":5126,
		"min":[-3.4153358936309816,
		-4.392847061157227,
		-3.969233989715576],
		"count":17643,
		"byteOffset":0,
		"max":[0.18427999317646027,
		3.9214980602264406,
		5.395370960235596]
	},
	{
		"bufferView":3,
		"type":"VEC3",
		"componentType":5126,
		"min":[-1.0,
		-1.0,
		-1.0],
		"count":17643,
		"byteOffset":12,
		"max":[1.0,
		1.0,
		1.0]
	},
	{
		"bufferView":3,
		"type":"VEC2",
		"componentType":5126,
		"min":[0.0,
		0.0],
		"count":17643,
		"byteOffset":24,
		"max":[1.0,
		1.0]
	},
	{
		"bufferView":4,
		"type":"SCALAR",
		"componentType":5123,
		"min":[0],
		"count":1086,
		"byteOffset":0,
		"max":[957]
	},
	{
		"bufferView":5,
		"type":"VEC3",
		"componentType":5126,
		"min":[-0.19793599843978883,
		-4.382846832275391,
		-3.9592339992523195],
		"count":958,
		"byteOffset":0,
		"max":[3.3816800117492677,
		3.9114980697631838,
		5.385371208190918]
	},
	{
		"bufferView":5,
		"type":"VEC3",
		"componentType":5126,
		"min":[-1.0,
		-0.9964687824249268,
		-0.9999688267707825],
		"count":958,
		"byteOffset":12,
		"max":[0.998343825340271,
		0.9782187938690186,
		0.9991875290870667]
	},
	{
		"bufferView":5,
		"type":"VEC2",
		"componentType":5126,
		"min":[0.0,
		0.0],
		"count":958,
		"byteOffset":24,
		"max":[1.0,
		1.0]
	},
	{
		"bufferView":6,
		"type":"SCALAR",
		"componentType":5123,
		"min":[0],
		"count":1086,
		"byteOffset":0,
		"max":[957]
	},
	{
		"bufferView":7,
		"type":"VEC3",
		"componentType":5126,
		"min":[-3.4053359031677248,
		-4.382846832275391,
		-3.9592339992523195],
		"count":958,
		"byteOffset":0,
		"max":[0.17428000271320344,
		3.9114980697631838,
		5.385371208190918]
	},
	{
		"bufferView":7,
		"type":"VEC3",
		"componentType":5126,
		"min":[-0.998343825340271,
		-0.9964687824249268,
		-0.9999688267707825],
		"count":958,
		"byteOffset":12,
		"max":[1.0,
		0.9782187938690186,
		0.9991875290870667]
	},
	{
		"bufferView":7,
		"type":"VEC2",
		"componentType":5126,
		"min":[0.0,
		0.0],
		"count":958,
		"byteOffset":24,
		"max":[1.0,
		1.0]
	}],
	"buffers":[{
		"uri":"data:application/octet-stream;base64,",
		"byteLength":669408
	},
	{
		"uri":"data:application/octet-stream;base64,",
		"byteLength":669408
	},
	{
		"uri":"data:application/octet-stream;base64,",
		"byteLength":32828
	},
	{
		"uri":"data:application/octet-stream;base64,",
		"byteLength":32828
	}],
	"bufferViews":[{
		"buffer":0,
		"byteOffset":0,
		"byteLength":104832,
		"target":34963
	},
	{
		"buffer":0,
		"byteOffset":104832,
		"byteLength":564576,
		"target":34962,
		"byteStride":32
	},
	{
		"buffer":1,
		"byteOffset":0,
		"byteLength":104832,
		"target":34963
	},
	{
		"buffer":1,
		"byteOffset":104832,
		"byteLength":564576,
		"target":34962,
		"byteStride":32
	},
	{
		"buffer":2,
		"byteOffset":0,
		"byteLength":2172,
		"target":34963
	},
	{
		"buffer":2,
		"byteOffset":2172,
		"byteLength":30656,
		"target":34962,
		"byteStride":32
	},
	{
		"buffer":3,
		"byteOffset":0,
		"byteLength":2172,
		"target":34963
	},
	{
		"buffer":3,
		"byteOffset":2172,
		"byteLength":30656,
		"target":34962,
		"byteStride":32
	}],
	"materials":[{
		"pbrMetallicRoughness":{
			"baseColorFactor":[1.0,
			1.0,
			1.0,
			1.0],
			"metallicFactor":0.0,
			"roughnessFactor":0.5
		},
		"emissiveFactor":[0.0,
		0.0,
		0.0],
		"alphaMode":"OPAQUE",
		"doubleSided":false,
		"name":"default"
	},
	{
		"pbrMetallicRoughness":{
			"baseColorFactor":[1.0,
			1.0,
			1.0,
			1.0],
			"metallicFactor":0.0,
			"roughnessFactor":0.5
		},
		"emissiveFactor":[0.0,
		0.0,
		0.0],
		"alphaMode":"OPAQUE",
		"doubleSided":false,
		"name":"lambert1"
	}]
}